<?xml version="1.0" encoding="UTF-8"?>
<svg preserveAspectRatio="none" width="1440px" height="563px" viewBox="0 0 1440 563" version="1.1" xmlns="http://www.w3.org/2000/svg" xmlns:xlink="http://www.w3.org/1999/xlink">
    <!-- Generator: sketchtool 53.2 (72643) - https://sketchapp.com -->
    <title>F4C954CF-0876-436B-8584-F0E54B152F16</title>
    <desc>Created with sketchtool.</desc>
    <g id="Page-1" stroke="none" stroke-width="1" fill="none" fill-rule="evenodd" stroke-opacity="0.2">
        <g id="About-Us/Woffu" transform="translate(0.000000, -2374.000000)" fill="#FCFCFC" stroke="#00B1FF">
            <path d="M1440.5,2432.45885 C1319.98155,2393.82037 1182.80802,2374.5 1028.97867,2374.5 C972.589864,2374.5 915.492135,2377.61316 852.799878,2383.63737 C804.851815,2388.24478 764.441294,2393.20011 684.900368,2403.74257 C630.482161,2410.95524 613.263488,2413.19596 586.415849,2416.4553 C508.668634,2425.8939 446.859953,2431.12828 385.929358,2432.594 C243.741129,2436.01442 114.263799,2416.72093 -2.5,2374.71157 L-2.5,2884.50109 C239.375395,2919.16705 480.042468,2936.5 719.501389,2936.5 C958.959932,2936.5 1199.29275,2919.1671 1440.5,2884.50126 L1440.5,2432.45885 Z" id="Combined-Shape" transform="translate(719.000000, 2655.500000) scale(1, -1) translate(-719.000000, -2655.500000) "></path>
        </g>
    </g>
</svg>