<svg xmlns="http://www.w3.org/2000/svg" xmlns:xlink="http://www.w3.org/1999/xlink" width="1287" height="575" viewBox="0 0 1287 575">
    <defs>
        <linearGradient id="a" x1="0%" x2="70.73%" y1="-50.013%" y2="77.1%">
            <stop offset="0%" stop-color="#FFF"/>
            <stop offset="100%" stop-color="#00AFFF"/>
        </linearGradient>
        <filter id="b" width="100%" height="100%" x="0%" y="0%" filterUnits="objectBoundingBox">
            <feGaussianBlur in="SourceGraphic"/>
        </filter>
        <linearGradient id="d" x1="73.626%" x2="0%" y1="93.522%" y2="-75.001%">
            <stop offset="0%" stop-color="#F9906F"/>
            <stop offset="100%" stop-color="#FFD7CB"/>
        </linearGradient>
        <linearGradient id="f" x1="50%" x2="50%" y1="0%" y2="100%">
            <stop offset="0%" stop-color="#052B53"/>
            <stop offset="100%" stop-color="#093461"/>
        </linearGradient>
        <circle id="e" cx="1254.5" cy="32.5" r="32.5"/>
        <filter id="c" width="100%" height="100%" x="0%" y="0%" filterUnits="objectBoundingBox">
            <feGaussianBlur in="SourceGraphic"/>
        </filter>
        <circle id="h" cx="32.5" cy="525.5" r="32.5"/>
        <filter id="g" width="100%" height="100%" x="0%" y="0%" filterUnits="objectBoundingBox">
            <feGaussianBlur in="SourceGraphic"/>
        </filter>
        <circle id="j" cx="1246.5" cy="542.5" r="32.5"/>
        <filter id="i" width="100%" height="100%" x="0%" y="0%" filterUnits="objectBoundingBox">
            <feGaussianBlur in="SourceGraphic"/>
        </filter>
        <linearGradient id="k" x1="73.626%" x2="0%" y1="93.522%" y2="-75.001%">
            <stop offset="0%" stop-color="#4CD964"/>
            <stop offset="100%" stop-color="#C9FFD2"/>
        </linearGradient>
        <filter id="l" width="100%" height="100%" x="0%" y="0%" filterUnits="objectBoundingBox">
            <feGaussianBlur in="SourceGraphic"/>
        </filter>
        <circle id="n" cx="109.5" cy="75.5" r="32.5"/>
        <filter id="m" width="100%" height="100%" x="0%" y="0%" filterUnits="objectBoundingBox">
            <feGaussianBlur in="SourceGraphic"/>
        </filter>
    </defs>
    <g fill="none" fill-rule="evenodd">
        <circle cx="20.5" cy="20.5" r="20.5" fill="url(#a)" filter="url(#b)" transform="translate(1200 500)"/>
        <g filter="url(#c)" transform="matrix(-1 0 0 1 2509 0)">
            <use fill="url(#d)" xlink:href="#e"/>
            <use fill="url(#f)" xlink:href="#e"/>
        </g>
        <g filter="url(#g)" transform="matrix(-1 0 0 1 65 0)">
            <use fill="url(#d)" xlink:href="#h"/>
            <use fill="url(#f)" xlink:href="#h"/>
        </g>
        <g filter="url(#i)" transform="matrix(-1 0 0 1 2493 0)">
            <use fill="url(#d)" xlink:href="#j"/>
            <use fill="url(#f)" xlink:href="#j"/>
        </g>
        <circle cx="72.5" cy="68.5" r="20.5" fill="url(#k)" filter="url(#l)" transform="matrix(-1 0 0 1 145 0)"/>
        <g filter="url(#m)" transform="matrix(-1 0 0 1 219 0)">
            <use fill="url(#d)" xlink:href="#n"/>
            <use fill="url(#f)" xlink:href="#n"/>
        </g>
    </g>
</svg>
