<?xml version="1.0" encoding="UTF-8"?>
<svg preserveAspectRatio="none" width="1440px" height="613px" viewBox="0 0 1440 613" version="1.1" xmlns="http://www.w3.org/2000/svg" xmlns:xlink="http://www.w3.org/1999/xlink">
    <!-- Generator: sketchtool 53.2 (72643) - https://sketchapp.com -->
    <title>7655AAE8-9A48-4C82-99B7-7D9AC50227FD</title>
    <desc>Created with sketchtool.</desc>
    <g id="Page-1" stroke="none" stroke-width="1" fill="none" fill-rule="evenodd" stroke-opacity="0.2">
        <g id="Functionalities/Holidays-and-Absences" transform="translate(0.000000, -2297.000000)" fill="#FCFCFC" stroke="#00B1FF">
            <path d="M1443.5,2355.45885 C1322.98155,2316.82037 1185.80802,2297.5 1031.97867,2297.5 C975.589864,2297.5 918.492135,2300.61316 855.799878,2306.63737 C807.851815,2311.24478 767.441294,2316.20011 687.900368,2326.74257 C633.482161,2333.95524 616.263488,2336.19596 589.415849,2339.4553 C511.668634,2348.8939 449.859953,2354.12828 388.929358,2355.594 C246.741129,2359.01442 117.263799,2339.72093 0.5,2297.71157 L0.5,2857.50109 C242.375395,2892.16705 483.042468,2909.5 722.501389,2909.5 C961.959932,2909.5 1202.29275,2892.1671 1443.5,2857.50126 L1443.5,2355.45885 Z" id="fondo-2" transform="translate(722.000000, 2603.500000) scale(1, -1) translate(-722.000000, -2603.500000) "></path>
        </g>
    </g>
</svg>