<?xml version="1.0" encoding="UTF-8"?>
<svg width="32px" height="8px" viewBox="0 0 32 8" version="1.1" xmlns="http://www.w3.org/2000/svg" xmlns:xlink="http://www.w3.org/1999/xlink">
    <!-- Generator: sketchtool 53.2 (72643) - https://sketchapp.com -->
    <title>9DA4988B-309D-4543-838F-5063F3E815C8</title>
    <desc>Created with sketchtool.</desc>
    <g id="Page-1" stroke="none" stroke-width="1" fill="none" fill-rule="evenodd">
        <g id="Functionalities/Holidays-and-Absences" transform="translate(-704.000000, -986.000000)" fill="#00B1FF">
            <g id="1" transform="translate(210.000000, 916.000000)">
                <path d="M523.30277,70.6989099 C521.294284,73.9871027 519.140079,75.0508214 518.411487,75.0508214 L518.411487,75.0508214 C517.608821,75.0508214 516.464931,74.3040074 515.28704,73.0118225 L515.28704,73.0118225 L515.231181,72.9491786 C513.430344,70.9924766 511.670793,70 509.999888,70 L509.999888,70 C508.328983,70 506.569432,70.9924766 504.754023,72.9651466 L504.754023,72.9651466 L504.723665,73.0007677 C503.534845,74.3040074 502.390955,75.0508214 501.588289,75.0508214 L501.588289,75.0508214 C500.057031,75.0508214 497.806895,72.5057577 496.697006,70.6989099 L496.697006,70.6989099 C496.274422,70.0073699 495.375825,69.7924152 494.692163,70.219868 L494.692163,70.219868 C494.252579,70.49501 494.007286,70.966682 494,71.4518655 L494,71.4518655 L494,71.4948564 C494.003643,71.7528021 494.074074,72.0132044 494.217363,72.2490404 L494.217363,72.2490404 C494.576802,72.8386304 497.839682,78 501.588289,78 L501.588289,78 C503.273766,78 505.049103,76.990327 506.875441,74.9881775 L506.875441,74.9881775 L506.902156,74.9574697 C508.077618,73.6800246 509.206937,72.9491786 509.999888,72.9491786 L509.999888,72.9491786 C510.792839,72.9491786 511.922157,73.6800246 513.083048,74.9415016 L513.083048,74.9415016 L513.134049,74.9992323 C514.950673,76.990327 516.72601,78 518.411487,78 L518.411487,78 C522.160094,78 525.422974,72.8386304 525.782413,72.2502687 L525.782413,72.2502687 C526.204996,71.5562721 525.993704,70.6485491 525.307613,70.219868 L525.307613,70.219868 C525.069606,70.0712421 524.804884,70 524.543806,70 L524.543806,70 C524.055649,70 523.578421,70.2481191 523.30277,70.6989099" id="Fill-1-Copy"></path>
            </g>
        </g>
    </g>
</svg>