<svg xmlns="http://www.w3.org/2000/svg" width="15" height="19" viewBox="0 0 15 19">
    <g fill="#00B1FF" fill-rule="nonzero">
        <path d="M7.517 18.833a.533.533 0 0 1-.387-.168C6.85 18.364.259 11.26.259 7.336.259 3.291 3.515 0 7.517 0c4.002 0 7.26 3.29 7.26 7.336 0 3.923-6.591 11.028-6.872 11.33a.532.532 0 0 1-.388.167zm0-17.757c-3.415 0-6.193 2.808-6.193 6.26 0 2.715 4.16 7.904 6.193 10.167 2.035-2.264 6.194-7.451 6.194-10.168 0-3.451-2.778-6.26-6.194-6.26z"/>
        <path d="M7.517 9.632c-1.693 0-3.07-1.392-3.07-3.103 0-1.71 1.377-3.103 3.07-3.103 1.693 0 3.07 1.392 3.07 3.103 0 1.711-1.376 3.103-3.07 3.103zm0-5.13A2.018 2.018 0 0 0 5.512 6.53c0 1.118.899 2.027 2.005 2.027A2.018 2.018 0 0 0 9.523 6.53c0-1.118-.9-2.027-2.006-2.027z"/>
    </g>
</svg>
