<?xml version="1.0" encoding="UTF-8"?>
<svg width="512px" height="377px" viewBox="0 0 512 377" version="1.1" xmlns="http://www.w3.org/2000/svg" xmlns:xlink="http://www.w3.org/1999/xlink">
    <!-- Generator: sketchtool 53.2 (72643) - https://sketchapp.com -->
    <title>59B01BEA-3759-43A7-B230-CDE2B07BAA51</title>
    <desc>Created with sketchtool.</desc>
    <g id="Page-1" stroke="none" stroke-width="1" fill="none" fill-rule="evenodd">
        <g id="rocket" transform="translate(-702.000000, -111.000000)" fill-rule="nonzero">
            <g transform="translate(699.000000, 111.000000)">
                <g id="Group-19" transform="translate(3.000000, 0.000000)" fill="#FFFFFF" opacity="0.0689639137">
                    <path d="M337.875,160.2 C351.32348,160.2 362.277588,171.074737 362.4375,184.495831 C362.373535,184.992444 362.325434,185.4888 362.30957,186.0013 L362.101812,192.023175 L367.794684,194.009113 C374.383062,196.307163 378.8125,202.497138 378.8125,209.4 C378.8125,218.4487 371.472406,225.8 362.4375,225.8 L280.5625,225.8 C271.535525,225.8 264.1875,218.4487 264.1875,209.4 C264.1875,200.447137 271.399664,193.144013 280.306641,193 C280.69043,193.056119 281.090338,193.104038 281.48999,193.128125 L287.710699,193.536587 L289.757574,187.650781 C292.060309,181.036456 298.232916,176.6 305.125,176.6 C305.924561,176.6 306.804205,176.696094 307.987555,176.904425 L313.72034,177.937369 L316.574707,172.852344 C320.956299,165.052863 329.111816,160.2 337.875,160.2 L337.875,160.2 Z M337.875,152 C325.609613,152 315.047482,158.8388 309.434695,168.83255 C308.0354,168.584244 306.604123,168.4 305.125,168.4 C294.39477,168.4 285.367795,175.334894 282.02576,184.944269 C281.538092,184.912238 281.066287,184.8 280.5625,184.8 C267.001953,184.8 256,195.81875 256,209.4 C256,222.98125 267.001953,234 280.5625,234 L362.4375,234 C375.998047,234 387,222.98125 387,209.4 C387,198.653388 380.075934,189.604688 370.481207,186.257294 C370.49707,185.760938 370.625,185.296613 370.625,184.8 C370.625,166.686456 355.961187,152 337.875,152 L337.875,152 Z" id="Shape" transform="translate(321.500000, 193.000000) scale(-1, 1) translate(-321.500000, -193.000000) "></path>
                    <path d="M102.875,99.2 C116.32348,99.2 127.277588,110.074737 127.4375,123.495831 C127.373535,123.992444 127.325434,124.4888 127.30957,125.0013 L127.101812,131.023175 L132.794684,133.009113 C139.383062,135.307163 143.8125,141.497138 143.8125,148.4 C143.8125,157.4487 136.472406,164.8 127.4375,164.8 L45.5625,164.8 C36.5355254,164.8 29.1875,157.4487 29.1875,148.4 C29.1875,139.447137 36.3996641,132.144013 45.3066406,132 C45.6904297,132.056119 46.0903379,132.104038 46.4899902,132.128125 L52.7106992,132.536587 L54.7575742,126.650781 C57.0603086,120.036456 63.232916,115.6 70.125,115.6 C70.9245605,115.6 71.8042051,115.696094 72.9875547,115.904425 L78.7203398,116.937369 L81.574707,111.852344 C85.9562988,104.052863 94.1118164,99.2 102.875,99.2 L102.875,99.2 Z M102.875,91 C90.6096133,91 80.0474824,97.8388 74.4346953,107.83255 C73.0354004,107.584244 71.604123,107.4 70.125,107.4 C59.3947695,107.4 50.3677949,114.334894 47.0257598,123.944269 C46.5380918,123.912238 46.0662871,123.8 45.5625,123.8 C32.0019531,123.8 21,134.81875 21,148.4 C21,161.98125 32.0019531,173 45.5625,173 L127.4375,173 C140.998047,173 152,161.98125 152,148.4 C152,137.653388 145.075934,128.604688 135.481207,125.257294 C135.49707,124.760938 135.625,124.296613 135.625,123.8 C135.625,105.686456 120.961187,91 102.875,91 L102.875,91 Z" id="Shape-Copy-2"></path>
                    <path d="M473.375,131.4 C483.948996,131.4 492.561768,139.8876 492.6875,150.3626 C492.637207,150.7502 492.599387,151.1376 492.586914,151.5376 L492.423563,156.2376 L496.899637,157.7876 C502.079813,159.5812 505.5625,164.4124 505.5625,169.8 C505.5625,176.8624 499.791281,182.6 492.6875,182.6 L428.3125,182.6 C421.214955,182.6 415.4375,176.8624 415.4375,169.8 C415.4375,162.8124 421.108133,157.1124 428.111328,157 C428.413086,157.0438 428.727518,157.0812 429.041748,157.1 L433.93284,157.4188 L435.542215,152.825 C437.352762,147.6626 442.206033,144.2 447.625,144.2 C448.253662,144.2 448.945291,144.275 449.875711,144.4376 L454.383168,145.2438 L456.627441,141.275 C460.07251,135.1876 466.484863,131.4 473.375,131.4 L473.375,131.4 Z M473.375,125 C463.731223,125 455.426646,130.3376 451.013539,138.1376 C449.91333,137.9438 448.787975,137.8 447.625,137.8 C439.188254,137.8 432.090709,143.2126 429.463002,150.7126 C429.079568,150.6876 428.708607,150.6 428.3125,150.6 C417.650391,150.6 409,159.2 409,169.8 C409,180.4 417.650391,189 428.3125,189 L492.6875,189 C503.349609,189 512,180.4 512,169.8 C512,161.4124 506.555887,154.35 499.011941,151.7374 C499.024414,151.35 499.125,150.9876 499.125,150.6 C499.125,136.4626 487.595438,125 473.375,125 L473.375,125 Z" id="Shape-Copy"></path>
                    <path d="M408.75,67.8 C415.11493,67.8 420.299316,72.8395125 420.375,79.0590438 C420.344727,79.2891812 420.321961,79.5192 420.314453,79.7567 L420.216125,82.547325 L422.910461,83.4676375 C426.028625,84.5325875 428.125,87.4011125 428.125,90.6 C428.125,94.7933 424.651063,98.2 420.375,98.2 L381.625,98.2 C377.352691,98.2 373.875,94.7933 373.875,90.6 C373.875,86.4511125 377.288391,83.0667375 381.503906,83 C381.685547,83.0260062 381.874816,83.0482125 382.063965,83.059375 L385.008117,83.2486625 L385.976867,80.5210938 C387.066711,77.4559187 389.988098,75.4 393.25,75.4 C393.628418,75.4 394.044738,75.4445312 394.604797,75.541075 L397.318023,76.0197563 L398.668945,73.6632812 C400.742676,70.0488875 404.602539,67.8 408.75,67.8 L408.75,67.8 Z M408.75,64 C402.945008,64 397.946137,67.1692 395.289703,71.80045 C394.627441,71.6853813 393.950043,71.6 393.25,71.6 C388.17157,71.6 383.899262,74.8137313 382.317535,79.2668563 C382.08673,79.2520125 381.863434,79.2 381.625,79.2 C375.207031,79.2 370,84.30625 370,90.6 C370,96.89375 375.207031,102 381.625,102 L420.375,102 C426.792969,102 432,96.89375 432,90.6 C432,85.6198625 428.722961,81.4265625 424.181945,79.8753313 C424.189453,79.6453125 424.25,79.4301375 424.25,79.2 C424.25,70.8059188 417.309875,64 408.75,64 L408.75,64 Z" id="Shape-Copy"></path>
                    <path d="M51.25,10.1 C59.6681328,10.1 66.5249023,16.8635563 66.625,25.2108219 C66.5849609,25.5196906 66.5548516,25.8284 66.5449219,26.14715 L66.414875,29.8924625 L69.9783516,31.1276188 C74.102375,32.5568938 76.875,36.4067563 76.875,40.7 C76.875,46.32785 72.2804375,50.9 66.625,50.9 L15.375,50.9 C9.72452734,50.9 5.125,46.32785 5.125,40.7 C5.125,35.1317563 9.63948438,30.5895688 15.2148438,30.5 C15.4550781,30.5349031 15.7054023,30.5647063 15.9555664,30.5796875 L19.8494453,30.8337313 L21.1306953,27.1730469 C22.5721016,23.0592594 26.4358711,20.3 30.75,20.3 C31.2504883,20.3 31.8011055,20.3597656 32.5418281,20.4893375 L36.1302891,21.1317781 L37.9169922,17.9691406 C40.659668,13.1182438 45.7646484,10.1 51.25,10.1 L51.25,10.1 Z M51.25,5 C43.5724297,5 36.9610195,9.2534 33.4476719,15.469025 C32.5717773,15.3145906 31.6758633,15.2 30.75,15.2 C24.0333672,15.2 18.3828945,19.5131656 16.2909336,25.4897281 C15.9856758,25.4698062 15.6903477,25.4 15.375,25.4 C6.88671875,25.4 0,32.253125 0,40.7 C0,49.146875 6.88671875,56 15.375,56 L66.625,56 C75.1132812,56 82,49.146875 82,40.7 C82,34.0161313 77.6658516,28.3882813 71.6599922,26.3063656 C71.6699219,25.9976563 71.75,25.7088687 71.75,25.4 C71.75,14.1342594 62.571125,5 51.25,5 L51.25,5 Z" id="Shape-Copy-3"></path>
                    <path d="M159.25,4.1 C166.02557,4.1 171.544434,9.53736875 171.625,16.2479156 C171.592773,16.4962219 171.568539,16.7444 171.560547,17.00065 L171.455875,20.0115875 L174.324039,21.0045562 C177.643375,22.1535813 179.875,25.2485688 179.875,28.7 C179.875,33.22435 176.176938,36.9 171.625,36.9 L130.375,36.9 C125.827059,36.9 122.125,33.22435 122.125,28.7 C122.125,24.2235688 125.758609,20.5720063 130.246094,20.5 C130.439453,20.5280594 130.640934,20.5520188 130.842285,20.5640625 L133.976383,20.7682937 L135.007633,17.8253906 C136.167789,14.5182281 139.277652,12.3 142.75,12.3 C143.152832,12.3 143.596012,12.3480469 144.192203,12.4522125 L147.080477,12.9686844 L148.518555,10.4261719 C150.726074,6.52643125 154.834961,4.1 159.25,4.1 L159.25,4.1 Z M159.25,0 C153.070492,0 147.749113,3.4194 144.921297,8.416275 C144.216309,8.29212188 143.495207,8.2 142.75,8.2 C137.34393,8.2 132.795988,11.6674469 131.112215,16.4721344 C130.86652,16.4561188 130.628816,16.4 130.375,16.4 C123.542969,16.4 118,21.909375 118,28.7 C118,35.490625 123.542969,41 130.375,41 L171.625,41 C178.457031,41 184,35.490625 184,28.7 C184,23.3266938 180.511539,18.8023438 175.677555,17.1286469 C175.685547,16.8804688 175.75,16.6483063 175.75,16.4 C175.75,7.34322813 168.362125,0 159.25,0 L159.25,0 Z" id="Shape-Copy-3"></path>
                </g>
                <g id="rocket-(1)-copy" transform="translate(178.027518, 201.027518) rotate(-1.000000) translate(-178.027518, -201.027518) translate(3.027518, 26.027518)">
                    <path d="M108.8625,246.676389 C124.178472,261.992361 124.178472,287.154861 108.8625,302.471528 C93.5465278,317.7875 48.4180556,337.753472 33.1020833,322.4375 C17.7861111,307.121528 37.7513889,261.993056 53.0680556,246.677083 C68.3840278,231.360417 93.2729167,231.360417 108.8625,246.676389 Z" id="Path" fill="#EFC75E"></path>
                    <path d="M63.1875,239.291667 L63.1875,240.932639 C63.1875,269.377083 86.4354167,292.625 114.879861,292.625 L115.973611,292.625 C123.631944,277.855556 121.170139,259.257639 108.588889,246.676389 C96.5548611,234.36875 77.9569444,231.906944 63.1875,239.291667 Z" id="Path" fill="#DEB957"></path>
                    <path d="M189.272917,160.795833 C236.042361,207.565278 245.340972,274.026389 201.033333,318.334028 L179.973611,339.39375 C135.665972,383.701389 166.298611,277.308333 119.529167,230.538889 C72.7597222,183.769444 -33.9069444,214.675694 10.6743056,170.094444 L31.7340278,149.034722 C76.0423611,104.727778 142.503472,114.027083 189.272917,160.795833 L189.272917,160.795833 Z" id="Path" fill="#E75A70"></path>
                    <path d="M344.076389,5.99236111 C358.298611,20.2145833 352.008333,110.470833 264.760417,197.992361 C207.871528,254.607639 172.042361,274.573611 172.042361,274.573611 C134.025,300.283333 115.700694,282.778472 91.6319444,258.710417 C67.5631944,234.642361 49.7861111,216.317361 75.76875,178.3 C75.76875,178.3 96.0083333,142.197222 152.623611,85.3083333 C239.870833,-1.93888889 329.854167,-8.50277778 344.076389,5.99236111 L344.076389,5.99236111 Z" id="Path" fill="#81C6F9"></path>
                    <path d="M187.084722,262.265972 C147.426389,288.795833 128.28125,270.744444 103.392361,245.855556 C78.2298611,220.693056 59.9048611,201.821528 86.9819444,162.163194 L91.0847222,155.599306 C80.4180556,170.095139 75.76875,178.3 75.76875,178.3 C49.7861111,216.317361 67.5638889,234.641667 91.6319444,258.710417 C115.7,282.779167 134.025,300.009722 172.042361,274.573611 C172.042361,274.573611 188.999306,265.000694 218.264583,240.659028 C198.298611,255.975694 187.084722,262.265972 187.084722,262.265972 Z" id="Path" fill="#7DBDEC"></path>
                    <path d="M252.452083,97.6166667 C265.853472,111.018056 265.853472,132.625 252.452083,146.027083 C239.050694,159.428472 217.44375,159.428472 204.041667,146.027083 C190.640278,132.625694 190.640278,111.01875 204.041667,97.6166667 C217.443056,84.2145833 239.324306,84.2145833 252.452083,97.6166667 Z" id="Path" fill="#C8E7FF"></path>
                    <path d="M173.409722,182.402778 C180.247222,189.240278 167.119444,213.581944 133.751389,246.95 C100.383333,280.318056 80.1444444,289.343056 73.3069444,282.231944 C66.4694444,275.394444 75.2215278,255.154861 108.588889,221.7875 C142.229861,188.420139 166.298611,175.291667 173.409722,182.402778 Z" id="Path" fill="#E75A70"></path>
                    <path d="M228.384028,95.7020833 C235.221528,95.7020833 241.785417,98.4368056 246.709028,103.360417 C251.631944,108.283333 254.367361,114.847917 254.367361,121.685417 C254.367361,128.522917 251.632639,135.086806 246.709028,140.010417 C241.786111,144.933333 235.221528,147.66875 228.384028,147.66875 C221.546528,147.66875 214.982639,144.934028 210.059028,140.010417 C205.136111,135.0875 202.400694,128.522917 202.400694,121.685417 C202.400694,114.847917 205.135417,108.284028 210.059028,103.360417 C214.981944,98.4368056 221.546528,95.7020833 228.384028,95.7020833 L228.384028,95.7020833 Z M228.384028,87.4972222 C219.631944,87.4972222 210.879861,90.7791667 204.315972,97.6166667 C190.914583,111.018056 190.914583,132.625 204.315972,146.027083 C210.879861,152.590972 219.631944,156.146528 228.384028,156.146528 C237.136111,156.146528 245.888194,152.864583 252.452083,146.027083 C265.853472,132.625694 265.853472,111.01875 252.452083,97.6166667 C245.888194,90.7791667 237.136111,87.4972222 228.384028,87.4972222 Z" id="Shape" fill="#324D5B"></path>
                    <path d="M260.384028,12.8305556 C262.845833,31.1555556 272.691667,50.5743056 288.828472,66.7111111 C303.050694,80.6597222 319.461111,89.9590278 335.597917,93.7881944 C353.648611,48.9326389 352.28125,14.4715278 344.076389,5.99236111 C336.144444,-2.2125 303.324306,-3.57986111 260.384028,12.8305556 Z" id="Path" fill="#E75A70"></path>
                </g>
            </g>
        </g>
    </g>
</svg>