<?xml version="1.0" encoding="UTF-8"?>
<svg width="160px" height="146px" viewBox="0 0 160 146" version="1.1" xmlns="http://www.w3.org/2000/svg" xmlns:xlink="http://www.w3.org/1999/xlink">
    <!-- Generator: sketchtool 53.2 (72643) - https://sketchapp.com -->
    <title>DB313975-038A-459F-9285-36BDCD131C10</title>
    <desc>Created with sketchtool.</desc>
    <g id="Page-1" stroke="none" stroke-width="1" fill="none" fill-rule="evenodd" opacity="0.264811198">
        <g id="Home-Desktop" transform="translate(-283.000000, -4538.000000)" fill="#FFFFFF">
            <g id="Group-3" transform="translate(214.000000, 4502.000000)">
                <g transform="translate(69.000000, 36.000000)" id="Fill-1">
                    <path d="M4.79156975,-3.17294044 C1.0093916,-1.77740439 -0.936423529,2.41529781 0.449969748,6.21188715 L0.449969748,6.21188715 C4.48145546,17.2542947 19.1237143,53.3127524 37.998121,53.3127524 L37.998121,53.3127524 C47.3137109,53.3127524 56.3009445,45.1467335 65.494921,28.2967022 L65.494921,28.2967022 L65.6590992,27.985906 C72.8890185,14.8410533 78.2825748,13.1225329 80.1189378,13.1225329 L80.1189378,13.1225329 C81.9553008,13.1225329 87.3488571,14.8410533 94.5362118,27.9005893 L94.5362118,27.9005893 L94.773358,28.3515486 C103.936931,45.1467335 112.924165,53.3127524 122.239755,53.3127524 L122.239755,53.3127524 C141.114161,53.3127524 155.75642,17.2542947 159.793987,6.21188715 L159.793987,6.21188715 C161.18038,2.41529781 159.234565,-1.78349843 155.446306,-3.17294044 L155.446306,-3.17294044 C151.664128,-4.56238245 147.468464,-2.6122884 146.088151,1.18430094 L146.088151,1.18430094 C139.040652,20.4536677 127.456971,37.3158871 122.239755,37.3158871 L122.239755,37.3158871 C120.445956,37.3158871 115.064561,35.0610909 107.615738,21.3982445 L107.615738,21.3982445 L107.36035,20.9290031 C98.4096,4.64571787 89.5014151,-3.2643511 80.1189378,-3.2643511 L80.1189378,-3.2643511 C70.7364605,-3.2643511 61.8282756,4.64571787 52.8349613,21.0021317 L52.8349613,21.0021317 L52.6586218,21.3373041 C45.1733143,35.0610909 39.798,37.4133918 37.998121,37.4133918 L37.998121,37.4133918 C32.7991462,37.4133918 21.2093849,20.4536677 14.1497244,1.1782069 L14.1497244,1.1782069 C13.0673647,-1.78349843 10.2702555,-3.61780564 7.29680672,-3.61780564 L7.29680672,-3.61780564 C6.46375462,-3.61780564 5.61854118,-3.47764263 4.79156975,-3.17294044 M146.732703,67.2498307 C136.675271,83.5635862 125.888158,88.8410282 122.239755,88.8410282 L122.239755,88.8410282 C118.22043,88.8410282 112.492437,85.1358495 106.594185,78.7249154 L106.594185,78.7249154 L106.314474,78.4141191 C97.296837,68.7063072 88.4859429,63.7823197 80.1189378,63.7823197 L80.1189378,63.7823197 C71.7519328,63.7823197 62.9410387,68.7063072 53.8504336,78.4933417 L53.8504336,78.4933417 L53.6984168,78.670069 C47.7454387,85.1358495 42.0174454,88.8410282 37.998121,88.8410282 L37.998121,88.8410282 C30.3303933,88.8410282 19.0629076,76.2141693 13.5051731,67.2498307 L13.5051731,67.2498307 C11.3890992,63.818884 6.88940168,62.7524263 3.46598319,64.8731536 L3.46598319,64.8731536 C1.26477983,66.2382194 0.0364840336,68.5783323 0,70.9854796 L0,70.9854796 L0,71.1987712 C0.0182420168,72.4785204 0.370921008,73.7704577 1.08844034,74.9405141 L1.08844034,74.9405141 C2.88831933,77.8656552 19.2270857,103.472828 37.998121,103.472828 L37.998121,103.472828 C46.4380941,103.472828 55.328037,98.4635235 64.4733681,88.530232 L64.4733681,88.530232 L64.6071429,88.3778809 C70.4932336,82.0400752 76.1482588,78.4141191 80.1189378,78.4141191 L80.1189378,78.4141191 C84.0896168,78.4141191 89.744642,82.0400752 95.5577647,88.2986583 L95.5577647,88.2986583 L95.8131529,88.5850784 C104.909839,98.4635235 113.799782,103.472828 122.239755,103.472828 L122.239755,103.472828 C141.01079,103.472828 157.349556,77.8656552 159.149435,74.9466082 L159.149435,74.9466082 C161.265509,71.5034734 160.207472,66.9999749 156.771892,64.8731536 L156.771892,64.8731536 C155.580081,64.1357743 154.254494,63.7823197 152.94715,63.7823197 L152.94715,63.7823197 C150.502719,63.7823197 148.113015,65.0133166 146.732703,67.2498307 M55.7840874,125.344351 L55.6259899,125.423574 C49.1318319,128.891085 43.0389983,130.725392 37.998121,130.725392 L37.998121,130.725392 C25.5509849,130.725392 11.9606824,120.091285 11.8451496,119.993781 L11.8451496,119.993781 C8.6832,117.483034 4.09229244,118.007122 1.58705546,121.169931 L1.58705546,121.169931 C-0.918181513,124.326646 -0.40132437,128.927649 2.76062521,131.444489 L2.76062521,131.444489 C3.47206387,132.011235 20.4067361,145.351097 37.998121,145.351097 L37.998121,145.351097 C45.5259933,145.351097 53.7653042,142.992702 62.545795,138.306382 L62.545795,138.306382 L62.6795697,138.233254 C69.1007597,134.832777 75.1327866,133.035034 80.1189378,133.035034 L80.1189378,133.035034 C85.1050891,133.035034 91.1431966,134.832777 97.4853378,138.190596 L97.4853378,138.190596 L97.7468067,138.336853 C106.472571,142.992702 114.711882,145.351097 122.239755,145.351097 L122.239755,145.351097 C139.831139,145.351097 156.765812,132.011235 157.483331,131.444489 L157.483331,131.444489 C160.6392,128.927649 161.162138,124.326646 158.65082,121.169931 L158.65082,121.169931 C156.145583,118.007122 151.554676,117.483034 148.392726,119.993781 L148.392726,119.993781 C144.653113,122.979862 132.655946,130.725392 122.239755,130.725392 L122.239755,130.725392 C117.198877,130.725392 111.106044,128.891085 104.660531,125.454044 L104.660531,125.454044 L104.38082,125.301693 C95.7401849,120.725066 87.5799227,118.403235 80.1189378,118.403235 L80.1189378,118.403235 C72.6579529,118.403235 64.4976908,120.725066 55.7840874,125.344351"></path>
                </g>
            </g>
        </g>
    </g>
</svg>