<?xml version="1.0" encoding="UTF-8"?>
<svg width="144px" height="34px" viewBox="0 0 144 34" version="1.1" xmlns="http://www.w3.org/2000/svg" xmlns:xlink="http://www.w3.org/1999/xlink">
    <!-- Generator: sketchtool 53.2 (72643) - https://sketchapp.com -->
    <title>397351CC-8025-4A0B-80A9-B4149A7E3209</title>
    <desc>Created with sketchtool.</desc>
    <defs>
        <path d="M0.95831395,0.765411912 C0.201878319,1.04451912 -0.187284706,1.88305956 0.0899939496,2.64237743 L0.0899939496,2.64237743 C0.896291092,4.85085893 3.82474286,12.0625505 7.5996242,12.0625505 L7.5996242,12.0625505 C9.46274218,12.0625505 11.2601889,10.4293467 13.0989842,7.05934044 L13.0989842,7.05934044 L13.1318198,6.99718119 C14.5778037,4.36821066 15.656515,4.02450658 16.0237876,4.02450658 L16.0237876,4.02450658 C16.3910602,4.02450658 17.4697714,4.36821066 18.9072424,6.98011787 L18.9072424,6.98011787 L18.9546716,7.07030972 C20.7873862,10.4293467 22.5848329,12.0625505 24.4479509,12.0625505 L24.4479509,12.0625505 C28.2228323,12.0625505 31.151284,4.85085893 31.9587973,2.64237743 L31.9587973,2.64237743 C32.236076,1.88305956 31.8469129,1.04330031 31.0892612,0.765411912 L31.0892612,0.765411912 C30.3328255,0.487523511 29.4936928,0.87754232 29.2176303,1.63686019 L29.2176303,1.63686019 C27.8081304,5.49073354 25.4913943,8.86317743 24.4479509,8.86317743 L24.4479509,8.86317743 C24.0891913,8.86317743 23.0129123,8.41221818 21.5231476,5.6796489 L21.5231476,5.6796489 L21.4720699,5.58580063 C19.68192,2.32914357 17.900283,0.747129781 16.0237876,0.747129781 L16.0237876,0.747129781 C14.1472921,0.747129781 12.3656551,2.32914357 10.5669923,5.60042633 L10.5669923,5.60042633 L10.5317244,5.66746082 C9.03466286,8.41221818 7.9596,8.88267837 7.5996242,8.88267837 L7.5996242,8.88267837 C6.55982924,8.88267837 4.24187697,5.49073354 2.82994487,1.63564138 L2.82994487,1.63564138 C2.61347294,1.04330031 2.05405109,0.676438871 1.45936134,0.676438871 L1.45936134,0.676438871 C1.29275092,0.676438871 1.12370824,0.704471473 0.95831395,0.765411912 M29.3465405,14.8499661 C27.3350541,18.1127172 25.1776316,19.1682056 24.4479509,19.1682056 L24.4479509,19.1682056 C23.6440861,19.1682056 22.4984874,18.4271699 21.318837,17.1449831 L21.318837,17.1449831 L21.2628948,17.0828238 C19.4593674,15.1412614 17.6971886,14.1564639 16.0237876,14.1564639 L16.0237876,14.1564639 C14.3503866,14.1564639 12.5882077,15.1412614 10.7700867,17.0986683 L10.7700867,17.0986683 L10.7396834,17.1340138 C9.54908773,18.4271699 8.40348908,19.1682056 7.5996242,19.1682056 L7.5996242,19.1682056 C6.06607866,19.1682056 3.81258151,16.6428339 2.70103462,14.8499661 L2.70103462,14.8499661 C2.27781983,14.1637768 1.37788034,13.9504853 0.693196639,14.3746307 L0.693196639,14.3746307 C0.252955966,14.6476439 0.00729680672,15.1156665 0,15.5970959 L0,15.5970959 L0,15.6397542 C0.00364840336,15.8957041 0.0741842017,16.1540915 0.217688067,16.3881028 L0.217688067,16.3881028 C0.577663866,16.973131 3.84541714,22.0945655 7.5996242,22.0945655 L7.5996242,22.0945655 C9.28761882,22.0945655 11.0656074,21.0927047 12.8946736,19.1060464 L12.8946736,19.1060464 L12.9214286,19.0755762 C14.0986467,17.808015 15.2296518,17.0828238 16.0237876,17.0828238 L16.0237876,17.0828238 C16.8179234,17.0828238 17.9489284,17.808015 19.1115529,19.0597317 L19.1115529,19.0597317 L19.1626306,19.1170157 C20.9819677,21.0927047 22.7599563,22.0945655 24.4479509,22.0945655 L24.4479509,22.0945655 C28.202158,22.0945655 31.4699113,16.973131 31.8298871,16.3893216 L31.8298871,16.3893216 C32.2531018,15.7006947 32.0414945,14.799995 31.3543785,14.3746307 L31.3543785,14.3746307 C31.1160161,14.2271549 30.8508988,14.1564639 30.5894299,14.1564639 L30.5894299,14.1564639 C30.1005439,14.1564639 29.622603,14.4026633 29.3465405,14.8499661 M11.1568175,26.4688702 L11.125198,26.4847147 C9.82636639,27.1782169 8.60779966,27.5450784 7.5996242,27.5450784 L7.5996242,27.5450784 C5.11019697,27.5450784 2.39213647,25.4182571 2.36902992,25.3987561 L2.36902992,25.3987561 C1.73664,24.8966069 0.818458487,25.0014245 0.317411092,25.6339862 L0.317411092,25.6339862 C-0.183636303,26.2653292 -0.0802648739,27.1855298 0.552125042,27.6888978 L0.552125042,27.6888978 C0.694412773,27.802247 4.08134723,30.4702194 7.5996242,30.4702194 L7.5996242,30.4702194 C9.10519866,30.4702194 10.7530608,29.9985404 12.509159,29.0612765 L12.509159,29.0612765 L12.5359139,29.0466508 C13.8201519,28.3665555 15.0265573,28.0070069 16.0237876,28.0070069 L16.0237876,28.0070069 C17.0210178,28.0070069 18.2286393,28.3665555 19.4970676,29.0381191 L19.4970676,29.0381191 L19.5493613,29.0673705 C21.2945143,29.9985404 22.9423765,30.4702194 24.4479509,30.4702194 L24.4479509,30.4702194 C27.9662279,30.4702194 31.3531624,27.802247 31.4966662,27.6888978 L31.4966662,27.6888978 C32.12784,27.1855298 32.2324276,26.2653292 31.730164,25.6339862 L31.730164,25.6339862 C31.2291166,25.0014245 30.3109351,24.8966069 29.6785452,25.3987561 L29.6785452,25.3987561 C28.9306225,25.9959724 26.5311892,27.5450784 24.4479509,27.5450784 L24.4479509,27.5450784 C23.4397755,27.5450784 22.2212087,27.1782169 20.9321062,26.4908088 L20.9321062,26.4908088 L20.876164,26.4603386 C19.148037,25.5450132 17.5159845,25.080647 16.0237876,25.080647 L16.0237876,25.080647 C14.5315906,25.080647 12.8995382,25.5450132 11.1568175,26.4688702" id="path-1"></path>
    </defs>
    <g id="Symbols" stroke="none" stroke-width="1" fill="none" fill-rule="evenodd">
        <g id="MENU-1" transform="translate(0.000000, -1.000000)">
            <g id="HEADER-Copy">
                <g id="Group-15">
                    <g id="Group-3" transform="translate(0.000000, 3.795127)">
                        <mask id="mask-2" fill="white">
                            <use xlink:href="#path-1"></use>
                        </mask>
                        <g id="Clip-2"></g>
                        <path d="M0.95831395,0.765411912 C0.201878319,1.04451912 -0.187284706,1.88305956 0.0899939496,2.64237743 L0.0899939496,2.64237743 C0.896291092,4.85085893 3.82474286,12.0625505 7.5996242,12.0625505 L7.5996242,12.0625505 C9.46274218,12.0625505 11.2601889,10.4293467 13.0989842,7.05934044 L13.0989842,7.05934044 L13.1318198,6.99718119 C14.5778037,4.36821066 15.656515,4.02450658 16.0237876,4.02450658 L16.0237876,4.02450658 C16.3910602,4.02450658 17.4697714,4.36821066 18.9072424,6.98011787 L18.9072424,6.98011787 L18.9546716,7.07030972 C20.7873862,10.4293467 22.5848329,12.0625505 24.4479509,12.0625505 L24.4479509,12.0625505 C28.2228323,12.0625505 31.151284,4.85085893 31.9587973,2.64237743 L31.9587973,2.64237743 C32.236076,1.88305956 31.8469129,1.04330031 31.0892612,0.765411912 L31.0892612,0.765411912 C30.3328255,0.487523511 29.4936928,0.87754232 29.2176303,1.63686019 L29.2176303,1.63686019 C27.8081304,5.49073354 25.4913943,8.86317743 24.4479509,8.86317743 L24.4479509,8.86317743 C24.0891913,8.86317743 23.0129123,8.41221818 21.5231476,5.6796489 L21.5231476,5.6796489 L21.4720699,5.58580063 C19.68192,2.32914357 17.900283,0.747129781 16.0237876,0.747129781 L16.0237876,0.747129781 C14.1472921,0.747129781 12.3656551,2.32914357 10.5669923,5.60042633 L10.5669923,5.60042633 L10.5317244,5.66746082 C9.03466286,8.41221818 7.9596,8.88267837 7.5996242,8.88267837 L7.5996242,8.88267837 C6.55982924,8.88267837 4.24187697,5.49073354 2.82994487,1.63564138 L2.82994487,1.63564138 C2.61347294,1.04330031 2.05405109,0.676438871 1.45936134,0.676438871 L1.45936134,0.676438871 C1.29275092,0.676438871 1.12370824,0.704471473 0.95831395,0.765411912 M29.3465405,14.8499661 C27.3350541,18.1127172 25.1776316,19.1682056 24.4479509,19.1682056 L24.4479509,19.1682056 C23.6440861,19.1682056 22.4984874,18.4271699 21.318837,17.1449831 L21.318837,17.1449831 L21.2628948,17.0828238 C19.4593674,15.1412614 17.6971886,14.1564639 16.0237876,14.1564639 L16.0237876,14.1564639 C14.3503866,14.1564639 12.5882077,15.1412614 10.7700867,17.0986683 L10.7700867,17.0986683 L10.7396834,17.1340138 C9.54908773,18.4271699 8.40348908,19.1682056 7.5996242,19.1682056 L7.5996242,19.1682056 C6.06607866,19.1682056 3.81258151,16.6428339 2.70103462,14.8499661 L2.70103462,14.8499661 C2.27781983,14.1637768 1.37788034,13.9504853 0.693196639,14.3746307 L0.693196639,14.3746307 C0.252955966,14.6476439 0.00729680672,15.1156665 0,15.5970959 L0,15.5970959 L0,15.6397542 C0.00364840336,15.8957041 0.0741842017,16.1540915 0.217688067,16.3881028 L0.217688067,16.3881028 C0.577663866,16.973131 3.84541714,22.0945655 7.5996242,22.0945655 L7.5996242,22.0945655 C9.28761882,22.0945655 11.0656074,21.0927047 12.8946736,19.1060464 L12.8946736,19.1060464 L12.9214286,19.0755762 C14.0986467,17.808015 15.2296518,17.0828238 16.0237876,17.0828238 L16.0237876,17.0828238 C16.8179234,17.0828238 17.9489284,17.808015 19.1115529,19.0597317 L19.1115529,19.0597317 L19.1626306,19.1170157 C20.9819677,21.0927047 22.7599563,22.0945655 24.4479509,22.0945655 L24.4479509,22.0945655 C28.202158,22.0945655 31.4699113,16.973131 31.8298871,16.3893216 L31.8298871,16.3893216 C32.2531018,15.7006947 32.0414945,14.799995 31.3543785,14.3746307 L31.3543785,14.3746307 C31.1160161,14.2271549 30.8508988,14.1564639 30.5894299,14.1564639 L30.5894299,14.1564639 C30.1005439,14.1564639 29.622603,14.4026633 29.3465405,14.8499661 M11.1568175,26.4688702 L11.125198,26.4847147 C9.82636639,27.1782169 8.60779966,27.5450784 7.5996242,27.5450784 L7.5996242,27.5450784 C5.11019697,27.5450784 2.39213647,25.4182571 2.36902992,25.3987561 L2.36902992,25.3987561 C1.73664,24.8966069 0.818458487,25.0014245 0.317411092,25.6339862 L0.317411092,25.6339862 C-0.183636303,26.2653292 -0.0802648739,27.1855298 0.552125042,27.6888978 L0.552125042,27.6888978 C0.694412773,27.802247 4.08134723,30.4702194 7.5996242,30.4702194 L7.5996242,30.4702194 C9.10519866,30.4702194 10.7530608,29.9985404 12.509159,29.0612765 L12.509159,29.0612765 L12.5359139,29.0466508 C13.8201519,28.3665555 15.0265573,28.0070069 16.0237876,28.0070069 L16.0237876,28.0070069 C17.0210178,28.0070069 18.2286393,28.3665555 19.4970676,29.0381191 L19.4970676,29.0381191 L19.5493613,29.0673705 C21.2945143,29.9985404 22.9423765,30.4702194 24.4479509,30.4702194 L24.4479509,30.4702194 C27.9662279,30.4702194 31.3531624,27.802247 31.4966662,27.6888978 L31.4966662,27.6888978 C32.12784,27.1855298 32.2324276,26.2653292 31.730164,25.6339862 L31.730164,25.6339862 C31.2291166,25.0014245 30.3109351,24.8966069 29.6785452,25.3987561 L29.6785452,25.3987561 C28.9306225,25.9959724 26.5311892,27.5450784 24.4479509,27.5450784 L24.4479509,27.5450784 C23.4397755,27.5450784 22.2212087,27.1782169 20.9321062,26.4908088 L20.9321062,26.4908088 L20.876164,26.4603386 C19.148037,25.5450132 17.5159845,25.080647 16.0237876,25.080647 L16.0237876,25.080647 C14.5315906,25.080647 12.8995382,25.5450132 11.1568175,26.4688702" id="Fill-1" fill="#FFFFFF" mask="url(#mask-2)"></path>
                    </g>
                    <g id="Group-14" transform="translate(43.780840, 0.138700)" fill="#FFFFFF">
                        <path d="M35.4533597,19.2104983 C35.4533597,20.0502576 35.5421375,20.8583278 35.7196931,21.634709 C35.8972487,22.4110902 36.1769597,23.0911855 36.5576097,23.6762137 C36.9382598,24.2624607 37.4271459,24.725608 38.0242679,25.0693121 C38.6201738,25.4130162 39.3376931,25.5848682 40.1756097,25.5848682 C41.0135264,25.5848682 41.7310457,25.4130162 42.3281677,25.0693121 C42.9240736,24.725608 43.4129597,24.2624607 43.7936097,23.6762137 C44.175476,23.0911855 44.4539708,22.4110902 44.6315264,21.634709 C44.809082,20.8583278 44.899076,20.0502576 44.899076,19.2104983 C44.899076,18.2939541 44.8030013,17.4541949 44.6132844,16.6912206 C44.4223513,15.9282463 44.1365597,15.2603391 43.7559096,14.6874989 C43.3752595,14.1146588 42.8863734,13.6697936 42.2892514,13.3516845 C41.6933455,13.0335754 40.9879876,12.8739115 40.1756097,12.8739115 C39.3632319,12.8739115 38.6590901,13.0335754 38.0619681,13.3516845 C37.4648461,13.6697936 36.9771761,14.1146588 36.5965261,14.6874989 C36.2146598,15.2603391 35.9288682,15.9282463 35.7391513,16.6912206 C35.5482182,17.4541949 35.4533597,18.2939541 35.4533597,19.2104983 M29.8931929,19.2104983 C29.8931929,17.7345209 30.1145294,16.3609234 30.5596346,15.088487 C31.0035237,13.8160507 31.657804,12.7093723 32.5212595,11.7672331 C33.3834988,10.8263127 34.4561294,10.0877146 35.7391513,9.55387636 C37.020957,9.01881931 38.4997765,8.75190019 40.1756097,8.75190019 C41.851443,8.75190019 43.3302625,9.01881931 44.6132844,9.55387636 C45.8950901,10.0877146 46.9677207,10.8263127 47.8311761,11.7672331 C48.6934155,12.7093723 49.3476958,13.8160507 49.792801,15.088487 C50.2366901,16.3609234 50.4592427,17.7345209 50.4592427,19.2104983 C50.4592427,20.6096908 50.2816871,21.9394112 49.9253597,23.1996594 C49.5702484,24.4586889 48.9865039,25.5726801 48.1741261,26.5391955 C47.3605321,27.5069297 46.301279,28.275998 44.9939345,28.8476193 C43.6853738,29.4204594 42.0800763,29.7068795 40.1756097,29.7068795 C38.2711432,29.7068795 36.6658457,29.4204594 35.3585012,28.8476193 C34.0499405,28.275998 32.9906874,27.5069297 32.1783096,26.5391955 C31.3647156,25.5726801 30.7809711,24.4586889 30.4258598,23.1996594 C30.0707486,21.9394112 29.8931929,20.6096908 29.8931929,19.2104983" id="Fill-4"></path>
                        <path d="M54.538036,12.9125477 L53.2817691,12.9125477 C52.493714,12.9125477 51.9294276,12.7601966 51.5864777,12.4542756 C51.2435278,12.1495734 51.0720528,11.6913013 51.0720528,11.0806781 C51.0720528,10.4700549 51.2435278,10.0117828 51.5864777,9.70586182 C51.9294276,9.40115962 52.493714,9.24880853 53.2817691,9.24880853 L54.538036,9.24880853 L54.538036,6.46139285 C54.538036,5.59725743 54.7034303,4.82697028 55.0330028,4.15296903 C55.3625752,3.47896777 55.8137611,2.91222169 56.3853443,2.45394959 C56.9569275,1.99567749 57.6099917,1.65319223 58.3469691,1.42405618 C59.0827305,1.19492013 59.8574081,1.0803521 60.6697859,1.0803521 C61.6852582,1.0803521 62.5487137,1.28998721 63.2601523,1.71047624 C63.9703749,2.12974646 64.3254861,2.81106056 64.3254861,3.75198094 C64.3254861,4.26144301 64.1540112,4.70630821 63.8122774,5.08779536 C63.4693275,5.46928251 63.0436804,5.66063549 62.5353362,5.66063549 C62.3322417,5.66063549 62.1291473,5.64113455 61.9260528,5.60335147 C61.7229584,5.5655684 61.5198639,5.54606746 61.3167695,5.54606746 C60.9105806,5.54606746 60.606547,5.66672953 60.4034525,5.90805367 C60.1991419,6.15059661 60.0982028,6.46139285 60.0982028,6.84409881 L60.0982028,9.24880853 L61.8117362,9.24880853 C62.624114,9.24880853 63.2467749,9.38897154 63.6785026,9.66807875 C64.1102303,9.94840476 64.3254861,10.418865 64.3254861,11.0806781 C64.3254861,11.7424913 64.1102303,12.2129515 63.6785026,12.4920587 C63.2467749,12.7723847 62.624114,12.9125477 61.8117362,12.9125477 L60.0982028,12.9125477 L60.0982028,26.920317 C60.0982028,27.8368612 59.8440307,28.5303634 59.3369026,29.0008236 C58.8285584,29.4712838 58.156036,29.7065139 57.3181194,29.7065139 C56.4802028,29.7065139 55.8076804,29.4712838 55.2993362,29.0008236 C54.790992,28.5303634 54.538036,27.8368612 54.538036,26.920317 L54.538036,12.9125477 Z" id="Fill-6"></path>
                        <path d="M69.1669174,12.9125477 L67.9106505,12.9125477 C67.1225954,12.9125477 66.558309,12.7601966 66.2153591,12.4542756 C65.8724091,12.1495734 65.7009342,11.6913013 65.7009342,11.0806781 C65.7009342,10.4700549 65.8724091,10.0117828 66.2153591,9.70586182 C66.558309,9.40115962 67.1225954,9.24880853 67.9106505,9.24880853 L69.1669174,9.24880853 L69.1669174,6.46139285 C69.1669174,5.59725743 69.3323117,4.82697028 69.6618841,4.15296903 C69.9914565,3.47896777 70.4426424,2.91222169 71.0142256,2.45394959 C71.5858088,1.99567749 72.238873,1.65319223 72.9758505,1.42405618 C73.7116118,1.19492013 74.4862895,1.0803521 75.2986673,1.0803521 C76.3141396,1.0803521 77.177595,1.28998721 77.8890337,1.71047624 C78.5992562,2.12974646 78.9543675,2.81106056 78.9543675,3.75198094 C78.9543675,4.26144301 78.7828925,4.70630821 78.4411587,5.08779536 C78.0982088,5.46928251 77.6725617,5.66063549 77.1642175,5.66063549 C76.9611231,5.66063549 76.7580286,5.64113455 76.5549342,5.60335147 C76.3518397,5.5655684 76.1487453,5.54606746 75.9456508,5.54606746 C75.5394619,5.54606746 75.2354283,5.66672953 75.0323338,5.90805367 C74.8280233,6.15059661 74.7270841,6.46139285 74.7270841,6.84409881 L74.7270841,9.24880853 L76.4406175,9.24880853 C77.2529954,9.24880853 77.8756562,9.38897154 78.3073839,9.66807875 C78.7391117,9.94840476 78.9543675,10.418865 78.9543675,11.0806781 C78.9543675,11.7424913 78.7391117,12.2129515 78.3073839,12.4920587 C77.8756562,12.7723847 77.2529954,12.9125477 76.4406175,12.9125477 L74.7270841,12.9125477 L74.7270841,26.920317 C74.7270841,27.8368612 74.472912,28.5303634 73.9657839,29.0008236 C73.4574397,29.4712838 72.7849174,29.7065139 71.9470007,29.7065139 C71.1090841,29.7065139 70.4365617,29.4712838 69.9282175,29.0008236 C69.4198733,28.5303634 69.1669174,27.8368612 69.1669174,26.920317 L69.1669174,12.9125477 Z" id="Fill-8"></path>
                        <path d="M100.186372,26.9205608 C100.186372,27.76032 99.9893587,28.4343213 99.5965472,28.9437833 C99.2025197,29.4520266 98.5616168,29.7067576 97.6726225,29.7067576 C96.7836282,29.7067576 96.1427254,29.4520266 95.7499139,28.9437833 C95.3558864,28.4343213 95.1588726,27.76032 95.1588726,26.9205608 L95.1588726,26.1953695 L95.0834723,26.1953695 C94.2954171,27.2386698 93.3748034,28.0845231 92.3216309,28.7341482 C91.2684585,29.3825545 89.9416558,29.7067576 88.342439,29.7067576 C87.5045224,29.7067576 86.6666057,29.5921896 85.8286891,29.3630535 C84.9907724,29.1339175 84.2416336,28.7341482 83.5812726,28.1613081 C82.9209116,27.588468 82.3809479,26.8389006 81.9625976,25.9089495 C81.5430313,24.9802172 81.3338561,23.8040667 81.3338561,22.3780604 L81.3338561,11.5379752 C81.3338561,10.8005959 81.5247892,10.1521896 81.9054393,9.59153755 C82.2860894,9.03210433 83.0218508,8.75177831 84.1139395,8.75177831 C85.2060282,8.75177831 85.9430057,9.03210433 86.3236558,9.59153755 C86.7043059,10.1521896 86.8940229,10.8005959 86.8940229,11.5379752 L86.8940229,21.2713821 C86.8940229,22.4170623 87.1737338,23.3457946 87.7319395,24.0575789 C88.2901452,24.7705821 89.1791395,25.1264742 90.3989224,25.1264742 C90.8805116,25.1264742 91.3754783,25.0314071 91.8838225,24.8400542 C92.3909506,24.64992 92.8482171,24.3634999 93.2544061,23.9820128 C93.660595,23.5993068 93.9913835,23.1361595 94.2455556,22.5889144 C94.4985116,22.0416692 94.6262057,21.4237332 94.6262057,20.7375438 L94.6262057,11.5379752 C94.6262057,10.8005959 94.8159227,10.1521896 95.1977889,9.59153755 C95.578439,9.03210433 96.3142003,8.75177831 97.4062891,8.75177831 C98.4971617,8.75177831 99.2341392,9.03210433 99.6147892,9.59153755 C99.9954393,10.1521896 100.186372,10.8005959 100.186372,11.5379752 L100.186372,26.9205608 Z" id="Fill-10"></path>
                        <path d="M14.3807899,16.8439373 C14.2847153,16.8439373 14.1947213,16.8756263 14.1302662,16.9377856 C14.0451368,17.018227 13.9855462,17.2753956 13.9855462,17.2753956 L11.5994904,26.8064803 C11.4462575,27.3659135 11.2942407,27.8302796 11.1422239,28.1995787 C10.9902071,28.5688777 10.7858965,28.8674859 10.5329405,29.0966219 C10.2787684,29.3245392 9.96135731,29.4842031 9.58070723,29.5731762 C9.20005714,29.6621492 8.71725176,29.7072451 8.13350723,29.7072451 C7.57408538,29.7072451 7.11073815,29.6743373 6.74346555,29.6109592 C6.37497681,29.5475812 6.05756571,29.4074182 5.79123227,29.191689 C5.52489882,28.9759599 5.29626555,28.6700389 5.10533244,28.2751448 C4.91439933,27.8814696 4.71860168,27.3537254 4.51550723,26.6919122 L0.440240672,13.4081154 C0.338085378,13.1034132 0.249307563,12.7926169 0.173907227,12.473289 C0.0972907563,12.1551799 0.0595905882,11.7810056 0.0595905882,11.3471097 C0.0595905882,10.6097304 0.332004706,9.99301317 0.878049076,9.49573918 C1.42409345,8.99968401 2.05161882,8.75226583 2.76305748,8.75226583 C3.27018555,8.75226583 3.68367126,8.81564389 4.00108235,8.9424 C4.31849345,9.07037492 4.57266555,9.25441505 4.76238252,9.49573918 C4.95331563,9.73828213 5.09925176,10.0247022 5.20019092,10.3549994 C5.30234622,10.6865154 5.40328538,11.0558144 5.50544067,11.4616777 L8.06053916,22.1030972 C8.06053916,22.1030972 8.11769748,22.3602658 8.20161076,22.4407072 C8.26606588,22.5028665 8.35727597,22.5345555 8.45335059,22.5345555 C8.54820908,22.5345555 8.63941916,22.5028665 8.70387429,22.4407072 C8.78778756,22.3602658 8.84859429,22.1030972 8.84859429,22.1030972 L10.8758904,12.5683561 C10.9768296,12.0345179 11.0972269,11.5262746 11.2370824,11.0424075 C11.3769378,10.5597592 11.5739516,10.1453643 11.8281237,9.80166019 C12.0810797,9.45795611 12.4045714,9.19103699 12.798599,8.99968401 C13.1914104,8.80954984 13.7192128,8.72667085 14.3795738,8.75226583 L14.3820061,8.75226583 C15.0423671,8.72667085 15.5689533,8.80954984 15.9629808,8.99968401 C16.3570084,9.19103699 16.6805002,9.45795611 16.9334561,9.80166019 C17.1876282,10.1453643 17.384642,10.5597592 17.5244975,11.0424075 C17.6643529,11.5262746 17.7847503,12.0345179 17.8856894,12.5683561 L19.9129855,22.1030972 C19.9129855,22.1030972 19.9737923,22.3602658 20.0577055,22.4407072 C20.1221607,22.5028665 20.2133708,22.5345555 20.3082292,22.5345555 C20.4043039,22.5345555 20.4955139,22.5028665 20.5599691,22.4407072 C20.6438824,22.3602658 20.7010407,22.1030972 20.7010407,22.1030972 L23.2561392,11.4616777 C23.3582945,11.0558144 23.4592336,10.6865154 23.5613889,10.3549994 C23.6623281,10.0247022 23.8082642,9.73828213 23.9991973,9.49573918 C24.1889143,9.25441505 24.4430864,9.07037492 24.7604975,8.9424 C25.0779086,8.81564389 25.4913943,8.75226583 25.9985224,8.75226583 C26.709961,8.75226583 27.3374864,8.99968401 27.8835308,9.49573918 C28.4295751,9.99301317 28.7019892,10.6097304 28.7019892,11.3471097 C28.7019892,11.7810056 28.6642891,12.1551799 28.5876726,12.473289 C28.5122723,12.7926169 28.4234945,13.1034132 28.3213392,13.4081154 L24.2460726,26.6919122 C24.0429782,27.3537254 23.8471805,27.8814696 23.6562474,28.2751448 C23.4653143,28.6700389 23.236681,28.9759599 22.9703476,29.191689 C22.7040141,29.4074182 22.386603,29.5475812 22.0181143,29.6109592 C21.6508417,29.6743373 21.1874945,29.7072451 20.6280726,29.7072451 C20.0443281,29.7072451 19.5615227,29.6621492 19.1808726,29.5731762 C18.8002225,29.4842031 18.4828114,29.3245392 18.2286393,29.0966219 C17.9756834,28.8674859 17.7713728,28.5688777 17.619356,28.1995787 C17.4673392,27.8302796 17.3153224,27.3659135 17.1620894,26.8064803 L14.7760336,17.2753956 C14.7760336,17.2753956 14.716443,17.018227 14.6313136,16.9377856 C14.5668585,16.8756263 14.4768645,16.8439373 14.3807899,16.8439373" id="Fill-12"></path>
                    </g>
                </g>
            </g>
        </g>
    </g>
</svg>