<?xml version="1.0" encoding="UTF-8"?>
<svg width="50px" height="50px" viewBox="0 0 50 50" version="1.1" xmlns="http://www.w3.org/2000/svg" xmlns:xlink="http://www.w3.org/1999/xlink">
    <!-- Generator: sketchtool 53.2 (72643) - https://sketchapp.com -->
    <title>685A3726-AD2D-4921-AEE2-567994EF29FF</title>
    <desc>Created with sketchtool.</desc>
    <defs>
        <linearGradient x1="67.6897713%" y1="27.4710789%" x2="43.5896842%" y2="59.0751654%" id="linearGradient-1">
            <stop stop-color="#F0F0F0" stop-opacity="0.5" offset="0%"></stop>
            <stop stop-color="#F7F7F7" stop-opacity="0" offset="100%"></stop>
        </linearGradient>
        <path d="M175.715831,26.023158 C187.391623,39.2680085 189.438886,65.2420949 178.754736,83.3208324 C168.102574,101.39957 144.719001,111.550733 123.318713,110.422826 C101.886436,109.294919 82.4054563,96.8879421 76.8074736,81.7739886 C71.2094909,66.6600351 79.5264938,48.8068789 89.2829779,36.7221613 C99.0074736,24.6052178 110.203439,18.192261 126.453583,15.2597029 C142.703727,12.2949188 164.040038,12.7783075 175.715831,26.023158 Z" id="path-2"></path>
        <filter x="-24.8%" y="-24.3%" width="149.7%" height="156.9%" filterUnits="objectBoundingBox" id="filter-3">
            <feOffset dx="0" dy="4" in="SourceAlpha" result="shadowOffsetOuter1"></feOffset>
            <feGaussianBlur stdDeviation="8.5" in="shadowOffsetOuter1" result="shadowBlurOuter1"></feGaussianBlur>
            <feColorMatrix values="0 0 0 0 0   0 0 0 0 0   0 0 0 0 0  0 0 0 0.0479223279 0" type="matrix" in="shadowBlurOuter1"></feColorMatrix>
        </filter>
    </defs>
    <g id="Page-1" stroke="none" stroke-width="1" fill="none" fill-rule="evenodd">
        <g id="Home-Desktop" transform="translate(-315.000000, -3829.000000)">
            <rect fill="#FFFFFF" x="0" y="0" width="1440" height="5421"></rect>
            <rect id="fondo-abajo" fill="#F9FAFC" transform="translate(722.000000, 2916.500000) scale(1, -1) translate(-722.000000, -2916.500000) " x="-14" y="47" width="1472" height="5739"></rect>
            <path d="M254.006539,4918.99174 C882.86288,5156.08315 1891.35609,4683.11524 1800.22584,4182.57295 C1709.0956,3682.03065 16.4845952,2532.67099 -256.930161,3114.5703 C-443.994565,3512.69678 -374.873821,4681.92432 254.006539,4918.99174 Z" id="Mask-Copy" stroke-opacity="0.2" stroke="#00B1FF" fill="url(#linearGradient-1)" opacity="0.98" transform="translate(729.000000, 3968.000000) rotate(-216.000000) translate(-729.000000, -3968.000000) "></path>
            <g id="Group-9" transform="translate(211.000000, 3790.000000)">
                <g id="Path-Copy-7">
                    <use fill="black" fill-opacity="1" filter="url(#filter-3)" xlink:href="#path-2"></use>
                    <use fill="#FFFFFF" fill-rule="evenodd" xlink:href="#path-2"></use>
                </g>
                <g id="Group-9-Copy" transform="translate(0.000000, 30.773464)" fill-rule="nonzero">
                    <g id="Group-8" transform="translate(104.000000, 8.226536)">
                        <g id="audience">
                            <circle id="Oval" fill="#FFFFFF" cx="18.75" cy="18.75" r="14.0625"></circle>
                            <path d="M22.65625,17.1875 C22.65625,19.3421875 20.9039063,21.09375 18.75,21.09375 C16.5960938,21.09375 14.84375,19.3421875 14.84375,17.1875 C14.84375,15.0328125 16.5960938,13.28125 18.75,13.28125 C20.9039063,13.28125 22.65625,15.0328125 22.65625,17.1875 Z" id="Shape" fill="#FFFFFF"></path>
                            <path d="M18.75,13.28125 L18.75,21.09375 C20.9070312,21.09375 22.65625,19.3445313 22.65625,17.1875 C22.65625,15.0304688 20.9070312,13.28125 18.75,13.28125 Z" id="Shape" fill="#DCDDDE"></path>
                            <path d="M25.78125,26.5625 L25.78125,30.921875 C23.7109375,32.125 21.3125,32.8125 18.75,32.8125 C16.1875,32.8125 13.7890625,32.125 11.71875,30.921875 L11.71875,26.5625 C11.71875,24.8359375 13.1171875,23.4375 14.84375,23.4375 L22.65625,23.4375 C24.3828125,23.4375 25.78125,24.8359375 25.78125,26.5625 Z" id="Shape" fill="#00B1FF"></path>
                            <polygon id="Shape" fill="#BFDCFF" points="36.71875 33.59375 33.59375 36.71875 34.375 39.0625 44.53125 49.21875 47.65625 49.21875 49.21875 47.65625 49.21875 44.53125 39.0625 34.375"></polygon>
                            <circle id="Oval" fill="#4CD964" cx="21.875" cy="44.53125" r="4.6875"></circle>
                            <circle id="Oval" fill="#FF9878" cx="44.53125" cy="21.875" r="4.6875"></circle>
                            <path d="M18.75,9.375 L19.53125,9.375 L19.53125,7.8125 L18.75,7.8125 C12.71875,7.8125 7.8125,12.71875 7.8125,18.75 L7.8125,19.53125 L9.375,19.53125 L9.375,18.75 C9.375,13.5804687 13.5804687,9.375 18.75,9.375 Z" id="Shape" fill="#617892"></path>
                            <path d="M36.5078125,32.6992188 L35.15625,34.0515625 L29.7671875,28.6625 C32.1375,26.03125 33.59375,22.5617188 33.59375,18.75 C33.59375,10.5648438 26.9351563,3.90625 18.75,3.90625 C10.5648437,3.90625 3.90625,10.5648438 3.90625,18.75 C3.90625,26.9351563 10.5648438,33.59375 18.75,33.59375 C22.5617187,33.59375 26.03125,32.1375 28.6625,29.7671875 L34.0515625,35.15625 L32.7,36.5078125 L33.6921875,39.4851562 L44.2078125,50 L47.9796875,50 L50,47.9796875 L50,44.2078125 L39.484375,33.6921875 L36.5078125,32.6992188 Z M5.46875,18.75 C5.46875,11.4265625 11.4265625,5.46875 18.75,5.46875 C26.0734375,5.46875 32.03125,11.4265625 32.03125,18.75 C32.03125,23.1515625 29.8703125,27.0484375 26.5625,29.4664062 L26.5625,26.5625 C26.5625,24.4085937 24.8101563,22.65625 22.65625,22.65625 L19.53125,22.65625 L17.96875,22.65625 L14.84375,22.65625 C12.6898438,22.65625 10.9375,24.4085937 10.9375,26.5625 L10.9375,29.4664062 C7.6296875,27.0484375 5.46875,23.1515625 5.46875,18.75 Z M12.5,30.4625 L12.5,26.5625 C12.5,25.2703125 13.5515625,24.21875 14.84375,24.21875 L17.96875,24.21875 L17.96875,28.90625 L19.53125,28.90625 L19.53125,24.21875 L22.65625,24.21875 C23.9484375,24.21875 25,25.2703125 25,26.5625 L25,30.4625 C23.1359375,31.4609375 21.0085937,32.03125 18.75,32.03125 C16.4914062,32.03125 14.3640625,31.4609375 12.5,30.4625 Z M36.9296875,34.4882812 L38.2023437,34.9125 L34.9117187,38.203125 L34.4875,36.93125 L36.9296875,34.4882812 Z M48.4375,47.3328125 L47.3328125,48.4375 L44.8546875,48.4375 L35.8703125,39.453125 L39.453125,35.8703125 L48.4375,44.8546875 L48.4375,47.3328125 L48.4375,47.3328125 Z" id="Shape" fill="#617892"></path>
                            <path d="M14.0625,17.1875 C14.0625,19.7726563 16.1648437,21.875 18.75,21.875 C21.3351563,21.875 23.4375,19.7726563 23.4375,17.1875 C23.4375,14.6023438 21.3351563,12.5 18.75,12.5 C16.1648437,12.5 14.0625,14.6023438 14.0625,17.1875 Z M21.875,17.1875 C21.875,18.9109375 20.4734375,20.3125 18.75,20.3125 C17.0265625,20.3125 15.625,18.9109375 15.625,17.1875 C15.625,15.4640625 17.0265625,14.0625 18.75,14.0625 C20.4734375,14.0625 21.875,15.4640625 21.875,17.1875 Z" id="Shape" fill="#617892"></path>
                            <path d="M29.6875,35.6140625 L25.14375,40.1578125 C24.2304688,39.4734375 23.1015625,39.0625 21.875,39.0625 C18.859375,39.0625 16.40625,41.5164062 16.40625,44.53125 C16.40625,47.5460937 18.859375,50 21.875,50 C24.890625,50 27.34375,47.5460937 27.34375,44.53125 C27.34375,43.3046875 26.9328125,42.1757812 26.2484375,41.2625 L30.7921875,36.71875 L29.6875,35.6140625 Z M21.875,48.4375 C19.7210938,48.4375 17.96875,46.6851562 17.96875,44.53125 C17.96875,42.3773437 19.7210938,40.625 21.875,40.625 C24.0289063,40.625 25.78125,42.3773437 25.78125,44.53125 C25.78125,46.6851562 24.0289063,48.4375 21.875,48.4375 Z" id="Shape" fill="#617892"></path>
                            <path d="M35.6140625,29.6875 L36.71875,30.7921875 L41.2625,26.2484375 C42.1757812,26.9328125 43.3046875,27.34375 44.53125,27.34375 C47.546875,27.34375 50,24.8898438 50,21.875 C50,18.8601563 47.546875,16.40625 44.53125,16.40625 C41.515625,16.40625 39.0625,18.8601563 39.0625,21.875 C39.0625,23.1015625 39.4734375,24.2304688 40.1578125,25.14375 L35.6140625,29.6875 Z M44.53125,17.96875 C46.6851562,17.96875 48.4375,19.7210938 48.4375,21.875 C48.4375,24.0289063 46.6851562,25.78125 44.53125,25.78125 C42.3773437,25.78125 40.625,24.0289063 40.625,21.875 C40.625,19.7210938 42.3773437,17.96875 44.53125,17.96875 Z" id="Shape" fill="#617892"></path>
                            <polygon id="Rectangle-path" fill="#617892" points="17.96875 35.9375 19.53125 35.9375 19.53125 37.5 17.96875 37.5"></polygon>
                            <polygon id="Rectangle-path" fill="#617892" points="17.96875 0 19.53125 0 19.53125 1.5625 17.96875 1.5625"></polygon>
                            <polygon id="Rectangle-path" fill="#617892" transform="translate(15.629873, 1.057306) rotate(-99.997359) translate(-15.629873, -1.057306) " points="14.8486351 0.276068516 16.4111101 0.276068516 16.4111101 1.83854352 14.8486351 1.83854352"></polygon>
                            <polygon id="Rectangle-path" fill="#617892" transform="translate(12.602679, 1.862279) rotate(-109.998771) translate(-12.602679, -1.862279) " points="11.8214294 1.0810288 13.3839294 1.0810288 13.3839294 2.64352887 11.8214294 2.64352887"></polygon>
                            <polygon id="Rectangle-path" fill="#617892" transform="translate(9.766329, 3.188099) rotate(-120.000728) translate(-9.766329, -3.188099) " points="8.9850957 2.4068666 10.5475613 2.4068666 10.5475613 3.96933223 8.9850957 3.96933223"></polygon>
                            <polygon id="Rectangle-path" fill="#617892" transform="translate(7.200201, 4.985437) rotate(-130.002181) translate(-7.200201, -4.985437) " points="6.41897116 4.20420788 7.98143041 4.20420788 7.98143041 5.76666712 6.41897116 5.76666712"></polygon>
                            <polygon id="Rectangle-path" fill="#617892" transform="translate(4.984980, 7.199486) rotate(-139.997819) translate(-4.984980, -7.199486) " points="4.2037508 6.41825635 5.76621005 6.41825635 5.76621005 7.9807156 4.2037508 7.9807156"></polygon>
                            <polygon id="Rectangle-path" fill="#617892" transform="translate(3.188366, 9.765465) rotate(-149.999272) translate(-3.188366, -9.765465) " points="2.40713301 8.98423242 3.96959863 8.98423242 3.96959863 10.546698 2.40713301 10.546698"></polygon>
                            <polygon id="Rectangle-path" fill="#617892" transform="translate(1.866094, 12.602089) rotate(-160.001229) translate(-1.866094, -12.602089) " points="1.08484417 11.8208394 2.64734424 11.8208394 2.64734424 13.3833395 1.08484417 13.3833395"></polygon>
                            <polygon id="Rectangle-path" fill="#617892" transform="translate(1.052935, 15.632959) rotate(-169.996999) translate(-1.052935, -15.632959) " points="0.2716841 14.8517077 1.83418623 14.8517077 1.83418623 16.4142098 0.2716841 16.4142098"></polygon>
                            <polygon id="Rectangle-path" fill="#617892" points="35.9375 17.96875 37.5 17.96875 37.5 19.53125 35.9375 19.53125"></polygon>
                            <polygon id="Rectangle-path" fill="#617892" points="0 17.96875 1.5625 17.96875 1.5625 19.53125 0 19.53125"></polygon>
                            <polygon id="Rectangle-path" fill="#617892" transform="translate(36.448112, 15.625441) rotate(-9.997359) translate(-36.448112, -15.625441) " points="35.6668748 14.8442032 37.2293498 14.8442032 37.2293498 16.4066782 35.6668748 16.4066782"></polygon>
                            <polygon id="Rectangle-path" fill="#617892" transform="translate(1.053394, 21.870836) rotate(170.002641) translate(-1.053394, -21.870836) " points="0.272156953 21.089599 1.83463195 21.089599 1.83463195 22.652074 0.272156953 22.652074"></polygon>
                            <polygon id="Rectangle-path" fill="#617892" transform="translate(35.633587, 12.606453) rotate(-19.998771) translate(-35.633587, -12.606453) " points="34.8523372 11.8252028 36.4148373 11.8252028 36.4148373 13.3877029 34.8523372 13.3877029"></polygon>
                            <polygon id="Rectangle-path" fill="#617892" transform="translate(1.864239, 24.895410) rotate(160.001229) translate(-1.864239, -24.895410) " points="1.08298912 24.11416 2.6454892 24.11416 2.6454892 25.6766601 1.08298912 25.6766601"></polygon>
                            <polygon id="Rectangle-path" fill="#617892" transform="translate(34.308712, 9.766217) rotate(-30.000728) translate(-34.308712, -9.766217) " points="33.5274795 8.98498438 35.0899451 8.98498438 35.0899451 10.54745 33.5274795 10.54745"></polygon>
                            <polygon id="Rectangle-path" fill="#617892" transform="translate(3.188776, 27.734469) rotate(149.999272) translate(-3.188776, -27.734469) " points="2.40754316 26.9532363 3.97000879 26.9532363 3.97000879 28.515702 2.40754316 28.515702"></polygon>
                            <polygon id="Rectangle-path" fill="#617892" transform="translate(32.515458, 7.199324) rotate(-130.002181) translate(-32.515458, -7.199324) " points="31.7342287 6.41809428 33.2966879 6.41809428 33.2966879 7.98055353 31.7342287 7.98055353"></polygon>
                            <polygon id="Rectangle-path" fill="#617892" transform="translate(4.983965, 30.297730) rotate(49.997819) translate(-4.983965, -30.297730) " points="4.20273491 29.5165008 5.76519416 29.5165008 5.76519416 31.0789601 4.20273491 31.0789601"></polygon>
                            <polygon id="Rectangle-path" fill="#617892" transform="translate(30.299613, 4.985095) rotate(-139.997819) translate(-30.299613, -4.985095) " points="29.5183836 4.20386526 31.0808429 4.20386526 31.0808429 5.76632451 29.5183836 5.76632451"></polygon>
                            <polygon id="Rectangle-path" fill="#617892" transform="translate(7.201341, 32.511628) rotate(40.002181) translate(-7.201341, -32.511628) " points="6.42011143 31.7303981 7.98257068 31.7303981 7.98257068 33.2928574 6.42011143 33.2928574"></polygon>
                            <polygon id="Rectangle-path" fill="#617892" transform="translate(27.734469, 3.188776) rotate(-149.999272) translate(-27.734469, -3.188776) " points="26.9532363 2.40754316 28.515702 2.40754316 28.515702 3.97000879 26.9532363 3.97000879"></polygon>
                            <polygon id="Rectangle-path" fill="#617892" transform="translate(9.766217, 34.308712) rotate(30.000728) translate(-9.766217, -34.308712) " points="8.98498438 33.5274795 10.54745 33.5274795 10.54745 35.0899451 8.98498438 35.0899451"></polygon>
                            <polygon id="Rectangle-path" fill="#617892" transform="translate(24.895410, 1.864239) rotate(-160.001229) translate(-24.895410, -1.864239) " points="24.11416 1.08298912 25.6766601 1.08298912 25.6766601 2.6454892 24.11416 2.6454892"></polygon>
                            <polygon id="Rectangle-path" fill="#617892" transform="translate(12.604887, 35.633590) rotate(19.998771) translate(-12.604887, -35.633590) " points="11.8236369 34.85234 13.3861369 34.85234 13.3861369 36.41484 11.8236369 36.41484"></polygon>
                            <polygon id="Rectangle-path" fill="#617892" transform="translate(21.870836, 1.053394) rotate(-170.002641) translate(-21.870836, -1.053394) " points="21.089599 0.272156953 22.652074 0.272156953 22.652074 1.83463195 21.089599 1.83463195"></polygon>
                            <polygon id="Rectangle-path" fill="#617892" transform="translate(15.630044, 36.439508) rotate(99.997359) translate(-15.630044, -36.439508) " points="14.8488061 35.6582708 16.4112811 35.6582708 16.4112811 37.2207458 14.8488061 37.2207458"></polygon>
                            <polygon id="Shape" fill="#FFFFFF" points="22.65625 42.1875 21.09375 42.1875 21.09375 43.75 19.53125 43.75 19.53125 45.3125 21.09375 45.3125 21.09375 46.875 22.65625 46.875 22.65625 45.3125 24.21875 45.3125 24.21875 43.75 22.65625 43.75"></polygon>
                            <polygon id="Rectangle-path" fill="#FFFFFF" points="42.1875 21.09375 46.875 21.09375 46.875 22.65625 42.1875 22.65625"></polygon>
                        </g>
                    </g>
                </g>
            </g>
        </g>
    </g>
</svg>